<svg width="176" height="235" viewBox="0 0 176 235" fill="none" xmlns="http://www.w3.org/2000/svg">
<path d="M175.891 25.5872C175.891 20.5265 174.39 15.5795 171.579 11.3717C168.767 7.16392 164.771 3.88435 160.096 1.94772C155.42 0.0110865 150.276 -0.495624 145.313 0.491661C140.349 1.47895 135.79 3.91589 132.212 7.49431C128.634 11.0727 126.197 15.6319 125.209 20.5954C124.222 25.5588 124.729 30.7035 126.665 35.3789C128.602 40.0544 131.881 44.0505 136.089 46.8621C140.297 49.6736 145.244 51.1743 150.304 51.1743C153.664 51.1748 156.992 50.5132 160.096 49.2275C163.201 47.9418 166.022 46.0571 168.398 43.681C170.774 41.3049 172.658 38.4841 173.944 35.3795C175.23 32.2749 175.891 28.9474 175.891 25.5872Z" fill="#1A3C5B"/>
<path d="M143.719 61.9471H127.414V187.999H86.0966C75.5043 187.999 65.3459 183.791 57.856 176.301C50.3662 168.811 46.1584 158.653 46.1584 148.06C46.1584 137.467 50.3662 127.309 57.856 119.819C65.3459 112.329 75.5043 108.121 86.0966 108.121H115.398V61.9471H86.0966C63.2624 61.9471 41.3634 71.0182 25.2171 87.1649C9.07087 103.312 0 125.211 0 148.046C0 170.881 9.07087 192.781 25.2171 208.927C41.3634 225.074 63.2624 234.145 86.0966 234.145H173.191V91.4194C173.191 83.6028 170.085 76.1065 164.559 70.5793C159.032 65.0522 151.535 61.9471 143.719 61.9471Z" fill="#1A3C5B"/>
</svg>
