<svg xmlns="http://www.w3.org/2000/svg" width="192" height="192" viewBox="0 0 192 192" version="1.1"><path d="" stroke="none" fill="#203c5c" fill-rule="evenodd"/><path d="M 135.420 3.250 C 128.473 7.948, 125.743 13.558, 126.203 22.192 C 126.499 27.769, 127.077 29.602, 129.671 33.192 C 133.766 38.860, 140.397 42.286, 147.275 42.286 C 165.087 42.286, 175.115 21.301, 163.840 7.622 C 159.412 2.250, 154.338 0, 146.653 0 C 141.055 0, 139.606 0.419, 135.420 3.250 M 83.870 51.071 C 55.508 55.238, 30.994 78.290, 24.927 106.500 C 23.191 114.571, 23.422 130.157, 25.394 138.060 C 26.279 141.602, 29.072 148.714, 31.602 153.865 C 35.363 161.523, 37.711 164.740, 44.486 171.514 C 51.265 178.294, 54.472 180.634, 62.135 184.394 C 77.567 191.965, 77.860 192, 125.246 192 L 167.073 192 166.786 130.750 C 166.468 62.752, 166.737 65.505, 159.699 58.162 C 154.155 52.379, 149.708 50.729, 138.250 50.206 L 128 49.738 128 101.972 L 128 154.205 107.750 153.834 C 88.475 153.481, 87.233 153.339, 81.954 150.881 C 74.128 147.236, 69.528 142.817, 65.913 135.474 C 60.172 123.813, 61.930 110.300, 70.507 100.157 C 77.547 91.832, 86.482 89, 105.710 89 L 119 89 119 69.500 L 119 50 104.250 50.122 C 96.138 50.189, 86.966 50.616, 83.870 51.071" stroke="none" fill="#1c3c5c" fill-rule="evenodd"/></svg>